# xmcd
#
# Track frame offsets: 
#        150
#        38362
#        55334
#        76184
#        118693
#        147312
#        175670
#        216747
#        250551
#        288967
#
# Disc length: 4202 seconds
#
# Revision: 4
# Processed by: cddbd v1.5.2PL0 Copyright (c) Steve Scherf et al.
# Submitted via: ExactAudioCopyFreeDBPlugin 1.0
#
DISCID=8710680a
DTITLE=Brad Mehldau Trio - Day Is Done
DYEAR=2005
DGENRE=Jazz
TTITLE0=Knives Out
TTITLE1=Alfie
TTITLE2=Martha My Dear
TTITLE3=Day Is Done
TTITLE4=Artis
TTITLE5=Turtle Town
TTITLE6=She's Leaving Home
TTITLE7=Granada
TTITLE8=50 Ways To Leave Your Lover
TTITLE9=No Moon At All
EXTD=YEAR: 2005
EXTT0=
EXTT1=
EXTT2=
EXTT3=
EXTT4=
EXTT5=
EXTT6=
EXTT7=
EXTT8=
EXTT9=
PLAYORDER=
